# xmcd CD database file
#
# Track frame offsets:
#	150
#	8806
#	16475
#	21026
#	31545
#	41511
#	49089
#	54438
#	58422
#	65516
#	88643
#	96983
#	104394
#	134330
#	153688
#	160462
#	165822
#	171422
#	179564
#	186122
#	189921
#	192011
#	193506
#	195127
#	198275
#	201327
#	204312
#	206347
#	213404
#	218166
#	225035
#	233388
#	238725
#	245104
#	247199
#	253749
#
# Disc length: 3514 seconds
#
# Revision: 0
# Processed by: cddbd v1.5.1PL0 Copyright (c) Steve Scherf et al.
# Submitted via: CDex 1.51
#
DISCID=f00db824
DTITLE=Bob McNally - Enjoy The Noise, McNally Strumstick Instructions
DYEAR=2002
DGENRE=Folk
TTITLE0=Introduction
TTITLE1=How to Hold
TTITLE2=Tuning the Standard SS
TTITLE3=G Tuning notes
TTITLE4=Basic Playing Pt1
TTITLE5=Basic Playing Pt2
TTITLE6=Demo of Basic Playing
TTITLE7=Before Continuing
TTITLE8=Strumming(Basic Technique)
TTITLE9=Basic Rhythm
TTITLE10=Advanced Rhythm
TTITLE11=Accenting
TTITLE12=Sliding, Hamming On, Pulling Off
TTITLE13=How to Play Songs
TTITLE14=Twinkle Twinkle
TTITLE15=This Land is Your Land
TTITLE16=Jingle Bells
TTITLE17=Old Joe Clark
TTITLE18=Oh When The Saints
TTITLE19=Conclusion to Instruction
TTITLE20=SS Interlude #1
TTITLE21=SS Interlude #2
TTITLE22=SS Interlude #3
TTITLE23=SS Interlude #4
TTITLE24=Misc SS Music #1
TTITLE25=Misc SS Music #2
TTITLE26=Misc SS Music #3
TTITLE27=Misc SS Music #4
TTITLE28=Intro to Appendix A
TTITLE29=Tuning Instructions
TTITLE30=Grand D note(low)
TTITLE31=Grand A note(middle)
TTITLE32=Grand D note(high)
TTITLE33=Grand Conclusion
TTITLE34=Grand SS Music #1
TTITLE35=Grand SS Music #2
EXTD=YEAR: 2002
EXTT0=
EXTT1=
EXTT2=
EXTT3=
EXTT4=
EXTT5=
EXTT6=
EXTT7=
EXTT8=
EXTT9=
EXTT10=
EXTT11=
EXTT12=
EXTT13=
EXTT14=
EXTT15=
EXTT16=
EXTT17=
EXTT18=
EXTT19=
EXTT20=
EXTT21=
EXTT22=
EXTT23=
EXTT24=
EXTT25=
EXTT26=
EXTT27=
EXTT28=
EXTT29=
EXTT30=
EXTT31=
EXTT32=
EXTT33=
EXTT34=
EXTT35=
PLAYORDER=
